<?xml version="1.0" encoding="UTF-8" standalone="no"?>
<svg
   xmlns:dc="http://purl.org/dc/elements/1.1/"
   xmlns:cc="http://creativecommons.org/ns#"
   xmlns:rdf="http://www.w3.org/1999/02/22-rdf-syntax-ns#"
   xmlns:svg="http://www.w3.org/2000/svg"
   xmlns="http://www.w3.org/2000/svg"
   xmlns:sodipodi="http://sodipodi.sourceforge.net/DTD/sodipodi-0.dtd"
   xmlns:inkscape="http://www.inkscape.org/namespaces/inkscape"
   width="256.39307mm"
   height="70.389969mm"
   viewBox="0 0 256.39307 70.389969"
   version="1.1"
   id="svg8"
   inkscape:version="1.0.1 (3bc2e813f5, 2020-09-07, custom)"
   sodipodi:docname="logo.svg">
  <defs
     id="defs2">
    <inkscape:path-effect
       effect="fillet_chamfer"
       id="path-effect940"
       is_visible="true"
       lpeversion="1"
       satellites_param="F,0,0,1,0,0.35613562,0,1 @ F,0,0,1,0,0,0,1 @ F,0,0,1,0,0,0,1 @ F,0,0,1,0,0,0,1 @ F,0,0,1,0,0,0,1 @ F,0,0,1,0,0,0,1 @ F,0,0,1,0,0,0,1 @ F,0,0,1,0,0,0,1 @ F,0,0,1,0,0,0,1 @ F,0,0,1,0,0,0,1 @ F,0,0,1,0,0,0,1 @ F,0,0,1,0,0,0,1 @ F,0,0,1,0,0,0,1 @ F,0,0,1,0,0,0,1 @ F,0,0,1,0,0,0,1 @ F,0,0,1,0,0,0,1 @ F,0,0,1,0,0,0,1"
       unit="px"
       method="auto"
       mode="F"
       radius="1"
       chamfer_steps="1"
       flexible="false"
       use_knot_distance="true"
       apply_no_radius="true"
       apply_with_radius="true"
       only_selected="true"
       hide_knots="false" />
    <inkscape:path-effect
       effect="fillet_chamfer"
       id="path-effect938"
       is_visible="true"
       lpeversion="1"
       satellites_param="F,0,0,1,0,0,0,1 @ F,0,0,1,0,0,0,1 @ F,0,0,1,0,0,0,1 @ F,0,0,1,0,0,0,1 @ F,0,0,1,0,0,0,1 @ F,0,0,1,0,0,0,1 @ F,0,0,1,0,0,0,1 @ F,0,0,1,0,0,0,1 @ F,0,0,1,0,0,0,1 @ F,0,0,1,0,0.41869765,0,1 @ F,0,0,1,0,0,0,1 @ F,0,0,1,0,0,0,1 @ F,0,0,1,0,0,0,1 @ F,0,0,1,0,0,0,1 @ F,0,0,1,0,0,0,1 @ F,0,0,1,0,0,0,1 @ F,0,0,1,0,0,0,1 @ F,0,0,1,0,0,0,1 @ F,0,0,1,0,0,0,1 @ F,0,0,1,0,0,0,1 @ F,0,0,1,0,0,0,1 @ F,0,0,1,0,0,0,1 @ F,0,0,1,0,0,0,1 | F,0,0,1,0,0,0,1 @ F,0,0,1,0,0,0,1 @ F,0,0,1,0,0,0,1 @ F,0,0,1,0,0,0,1 @ F,0,0,1,0,0,0,1 @ F,0,0,1,0,0,0,1 @ F,0,0,1,0,0,0,1 @ F,0,0,1,0,0,0,1 @ F,0,0,1,0,0,0,1 @ F,0,0,1,0,0,0,1"
       unit="px"
       method="auto"
       mode="F"
       radius="1"
       chamfer_steps="1"
       flexible="false"
       use_knot_distance="true"
       apply_no_radius="true"
       apply_with_radius="true"
       only_selected="true"
       hide_knots="false" />
    <inkscape:path-effect
       effect="fillet_chamfer"
       id="path-effect936"
       is_visible="true"
       lpeversion="1"
       satellites_param="F,0,0,1,0,0,0,1 @ F,0,0,1,0,0,0,1 @ F,0,0,1,0,0,0,1 @ F,0,0,1,0,0,0,1 @ F,0,0,1,0,0.49676027,0,1 @ F,0,0,1,0,0,0,1 @ F,0,0,1,0,0,0,1 @ F,0,0,1,0,0,0,1 @ F,0,0,1,0,0,0,1 @ F,0,0,1,0,0,0,1 @ F,0,0,1,0,0,0,1 @ F,0,0,1,0,0,0,1 @ F,0,0,1,0,0,0,1 @ F,0,0,1,0,0,0,1 @ F,0,0,1,0,0,0,1 @ F,0,0,1,0,0,0,1 @ F,0,0,1,0,0,0,1 @ F,0,0,1,0,0,0,1 @ F,0,0,1,0,0,0,1 @ F,0,0,1,0,0,0,1 @ F,0,0,1,0,0,0,1 @ F,0,0,1,0,0,0,1 @ F,0,0,1,0,0,0,1"
       unit="px"
       method="auto"
       mode="F"
       radius="1"
       chamfer_steps="1"
       flexible="false"
       use_knot_distance="true"
       apply_no_radius="true"
       apply_with_radius="true"
       only_selected="true"
       hide_knots="false" />
    <inkscape:path-effect
       effect="fillet_chamfer"
       id="path-effect934"
       is_visible="true"
       lpeversion="1"
       satellites_param="F,0,0,1,0,0.31922464,0,1 @ F,0,0,1,0,0,0,1 @ F,0,0,1,0,0,0,1 @ F,0,0,1,0,0,0,1 @ F,0,0,1,0,0,0,1 @ F,0,0,1,0,0,0,1 @ F,0,0,1,0,0,0,1 @ F,0,0,1,0,0,0,1 @ F,0,0,1,0,0,0,1 @ F,0,0,1,0,0,0,1 @ F,0,0,1,0,0,0,1 @ F,0,0,1,0,0,0,1 @ F,0,0,1,0,0,0,1 @ F,0,0,1,0,0,0,1 @ F,0,0,1,0,0,0,1 @ F,0,0,1,0,0,0,1 @ F,0,0,1,0,0,0,1"
       unit="px"
       method="auto"
       mode="F"
       radius="1"
       chamfer_steps="1"
       flexible="false"
       use_knot_distance="true"
       apply_no_radius="true"
       apply_with_radius="true"
       only_selected="true"
       hide_knots="false" />
    <inkscape:path-effect
       effect="fillet_chamfer"
       id="path-effect932"
       is_visible="true"
       lpeversion="1"
       satellites_param="F,0,0,1,0,0,0,1 @ F,0,0,1,0,0,0,1 @ F,0,0,1,0,0,0,1 @ F,0,0,1,0,0,0,1 @ F,0,0,1,0,0.20459393,0,1 @ F,0,0,1,0,0,0,1 @ F,0,0,1,0,0,0,1 @ F,0,0,1,0,0,0,1 @ F,0,0,1,0,0,0,1 @ F,0,0,1,0,0,0,1 @ F,0,0,1,0,0,0,1 @ F,0,0,1,0,0,0,1 @ F,0,0,1,0,0,0,1 @ F,0,0,1,0,0,0,1 @ F,0,0,1,0,0,0,1"
       unit="px"
       method="auto"
       mode="F"
       radius="2"
       chamfer_steps="1"
       flexible="false"
       use_knot_distance="true"
       apply_no_radius="true"
       apply_with_radius="true"
       only_selected="true"
       hide_knots="false" />
    <inkscape:path-effect
       effect="fillet_chamfer"
       id="path-effect930"
       is_visible="true"
       lpeversion="1"
       satellites_param="F,0,0,1,0,0,0,1 @ F,0,0,1,0,0,0,1 @ F,0,0,1,0,0,0,1 @ F,0,0,1,0,0,0,1 @ F,0,0,1,0,0.14496422,0,1 @ F,0,0,1,0,0,0,1 @ F,0,0,1,0,0,0,1 @ F,0,0,1,0,0,0,1 @ F,0,0,1,0,0,0,1 @ F,0,0,1,0,0,0,1 @ F,0,0,1,0,0,0,1 @ F,0,0,1,0,0,0,1 @ F,0,0,1,0,0,0,1 @ F,0,0,1,0,0,0,1 @ F,0,0,1,0,0,0,1"
       unit="px"
       method="auto"
       mode="F"
       radius="3"
       chamfer_steps="1"
       flexible="false"
       use_knot_distance="true"
       apply_no_radius="true"
       apply_with_radius="true"
       only_selected="true"
       hide_knots="false" />
    <inkscape:path-effect
       effect="fillet_chamfer"
       id="path-effect928"
       is_visible="true"
       lpeversion="1"
       satellites_param="F,0,0,1,0,0,0,1 @ F,0,0,1,0,0,0,1 @ F,0,0,1,0,0,0,1 @ F,0,0,1,0,0,0,1 @ F,0,0,1,0,0,0,1 @ F,0,0,1,0,0,0,1 @ F,0,0,1,0,0,0,1 @ F,0,0,1,0,0,0,1 @ F,0,0,1,0,0,0,1 @ F,0,0,1,0,0,0,1 @ F,0,0,1,0,0,0,1 @ F,0,0,1,0,0,0,1 @ F,0,0,1,0,0,0,1 @ F,0,0,1,0,0,0,1 @ F,0,0,1,0,0,0,1"
       unit="px"
       method="auto"
       mode="F"
       radius="0"
       chamfer_steps="1"
       flexible="false"
       use_knot_distance="true"
       apply_no_radius="true"
       apply_with_radius="true"
       only_selected="true"
       hide_knots="false" />
    <inkscape:path-effect
       effect="fillet_chamfer"
       id="path-effect926"
       is_visible="true"
       lpeversion="1"
       satellites_param="F,0,0,1,0,0,0,3 @ F,0,0,1,0,0,0,3 @ F,0,0,1,0,0,0,3 @ F,0,0,1,0,0,0,3 @ F,0,0,1,0,0,0,3 @ F,0,0,1,0,0,0,3 @ F,0,0,1,0,0,0,3 @ F,0,0,1,0,0,0,3 @ F,0,1,1,0,0.33864433,0,3 @ F,0,0,1,0,0,0,3 @ F,0,0,1,0,0,0,3 @ F,0,0,1,0,0,0,3 @ F,0,0,1,0,0,0,3 @ F,0,0,1,0,0,0,3 @ F,0,0,1,0,0,0,3 @ F,0,0,1,0,0,0,3 @ F,0,0,1,0,0,0,3 @ F,0,0,1,0,0,0,3 @ F,0,0,1,0,0,0,3 @ F,0,0,1,0,0,0,3 @ F,0,0,1,0,0,0,3 @ F,0,0,1,0,0,0,3 @ F,0,0,1,0,0,0,3"
       unit="px"
       method="auto"
       mode="IC"
       radius="1"
       chamfer_steps="2"
       flexible="false"
       use_knot_distance="true"
       apply_no_radius="true"
       apply_with_radius="true"
       only_selected="true"
       hide_knots="false" />
    <rect
       x="-169.33333"
       y="-10.583333"
       width="317.5"
       height="95.25"
       id="rect841" />
    <marker
       style="overflow:visible"
       id="Arrow1Lstart"
       refX="0"
       refY="0"
       orient="auto"
       inkscape:stockid="Arrow1Lstart"
       inkscape:isstock="true">
      <path
         transform="matrix(0.8,0,0,0.8,10,0)"
         style="fill:#000000;fill-opacity:1;fill-rule:evenodd;stroke:#000000;stroke-width:1pt;stroke-opacity:1"
         d="M 0,0 5,-5 -12.5,0 5,5 Z"
         id="path841" />
    </marker>
  </defs>
  <sodipodi:namedview
     id="base"
     pagecolor="#ffffff"
     bordercolor="#666666"
     borderopacity="1.0"
     inkscape:pageopacity="0.0"
     inkscape:pageshadow="2"
     inkscape:zoom="0.6993891"
     inkscape:cx="422.2928"
     inkscape:cy="99.0814"
     inkscape:document-units="mm"
     inkscape:current-layer="text839"
     inkscape:document-rotation="0"
     showgrid="true"
     showborder="true"
     inkscape:snap-grids="true"
     inkscape:window-width="1918"
     inkscape:window-height="1038"
     inkscape:window-x="0"
     inkscape:window-y="20"
     inkscape:window-maximized="0"
     fit-margin-top="0"
     fit-margin-left="0"
     fit-margin-right="0"
     fit-margin-bottom="0">
    <inkscape:grid
       type="xygrid"
       id="grid835"
       visible="true"
       enabled="true"
       snapvisiblegridlinesonly="true"
       originx="64.677168"
       originy="146.31996" />
  </sodipodi:namedview>
  <metadata
     id="metadata5">
    <rdf:RDF>
      <cc:Work
         rdf:about="">
        <dc:format>image/svg+xml</dc:format>
        <dc:type
           rdf:resource="http://purl.org/dc/dcmitype/StillImage" />
        <dc:title></dc:title>
      </cc:Work>
    </rdf:RDF>
  </metadata>
  <g
     inkscape:label="Layer 1"
     inkscape:groupmode="layer"
     id="layer1"
     style="display:inline"
     transform="translate(64.677168,146.31996)">
    <g
       aria-label="travelr.
"
       transform="matrix(9.42073,0,0,9.42073,1487.9329,109.8292)"
       id="text839"
       style="font-style:normal;font-variant:normal;font-weight:normal;font-stretch:normal;font-size:10.5833px;line-height:1.25;font-family:Lobster;-inkscape-font-specification:'Lobster, Normal';font-variant-ligatures:normal;font-variant-caps:normal;font-variant-numeric:normal;font-variant-east-asian:normal;white-space:pre;shape-inside:url(#rect841);fill:#000000;fill-opacity:1;stroke:none">
      <g
         id="g958">
        <path
           d="m -163.67542,-19.718138 c -0.33867,0 -0.61383,-0.105833 -0.8255,-0.317499 -0.20461,-0.211666 -0.30691,-0.529165 -0.30691,-0.952497 0,-0.176389 0.0282,-0.405693 0.0847,-0.687915 l 0.63499,-2.973907 h -0.34925 c -0.17576,0 -0.17576,-0.423332 0.0847,-0.423332 h 0.34925 l 0.24556,-1.12958 a 0.4832828,0.4832828 137.28439 0 1 0.40753,-0.376265 l 1.23074,-0.166316 -0.35983,1.672161 h 0.63499 c 0.18025,0 0.18025,0.423332 -0.0847,0.423332 h -0.635 l -0.67733,3.17499 c -0.0282,0.105833 -0.0423,0.218721 -0.0423,0.338665 0,0.141111 0.0317,0.243416 0.0952,0.306916 0.0706,0.05644 0.18345,0.08467 0.33867,0.08467 0.20461,0 0.39511,-0.08467 0.5715,-0.253999 0.17639,-0.176388 0.30339,-0.402165 0.381,-0.677331 h 0.4445 c -0.26106,0.761997 -0.5962,1.280579 -1.00542,1.555745 -0.40922,0.26811 -0.81491,0.402165 -1.21708,0.402165 z"
           style="font-style:normal;font-variant:normal;font-weight:normal;font-stretch:normal;font-size:10.5833px;font-family:Lobster;-inkscape-font-specification:'Lobster, Normal';font-variant-ligatures:normal;font-variant-caps:normal;font-variant-numeric:normal;font-variant-east-asian:normal;fill:#e23d80;fill-opacity:1"
           id="path863"
           sodipodi:nodetypes="scsccccccccccccscsccccss"
           inkscape:path-effect="#path-effect926"
           inkscape:original-d="m -163.67542,-19.718138 c -0.33867,0 -0.61383,-0.105833 -0.8255,-0.317499 -0.20461,-0.211666 -0.30691,-0.529165 -0.30691,-0.952497 0,-0.176389 0.0282,-0.405693 0.0847,-0.687915 l 0.63499,-2.973907 h -0.34925 c -0.17576,0 -0.17576,-0.423332 0.0847,-0.423332 h 0.34925 l 0.3175,-1.460495 1.56633,-0.211666 -0.35983,1.672161 h 0.63499 c 0.18025,0 0.18025,0.423332 -0.0847,0.423332 h -0.635 l -0.67733,3.17499 c -0.0282,0.105833 -0.0423,0.218721 -0.0423,0.338665 0,0.141111 0.0317,0.243416 0.0952,0.306916 0.0706,0.05644 0.18345,0.08467 0.33867,0.08467 0.20461,0 0.39511,-0.08467 0.5715,-0.253999 0.17639,-0.176388 0.30339,-0.402165 0.381,-0.677331 h 0.4445 c -0.26106,0.761997 -0.5962,1.280579 -1.00542,1.555745 -0.40922,0.26811 -0.81491,0.402165 -1.21708,0.402165 z" />
        <path
           d="m -160.82164,-25.073288 h 1.16786 l -0.13758,0.656164 c 0.23989,-0.211665 0.45508,-0.373942 0.64558,-0.486831 0.19755,-0.112889 0.40922,-0.169333 0.63499,-0.169333 0.22578,0 0.40217,0.07761 0.52917,0.232833 0.13405,0.155221 0.20108,0.342193 0.20108,0.560914 0,0.204611 -0.067,0.384527 -0.20108,0.539749 -0.13405,0.155221 -0.32103,0.232832 -0.56092,0.232832 -0.15522,0 -0.26105,-0.03528 -0.31749,-0.105833 -0.0494,-0.07761 -0.0882,-0.186971 -0.11642,-0.328082 -0.0212,-0.09172 -0.0424,-0.15875 -0.0635,-0.201083 -0.0212,-0.04233 -0.06,-0.0635 -0.11642,-0.0635 -0.14817,0 -0.27517,0.03175 -0.381,0.09525 -0.0988,0.05645 -0.2293,0.158752 -0.39158,0.306916 l -0.84666,4.021654 h -1.524 l 1.04797,-4.943257 a 0.43955151,0.43955151 140.98474 0 1 0.43,-0.348393 z"
           style="font-style:normal;font-variant:normal;font-weight:normal;font-stretch:normal;font-size:10.5833px;font-family:Lobster;-inkscape-font-specification:'Lobster, Normal';font-variant-ligatures:normal;font-variant-caps:normal;font-variant-numeric:normal;font-variant-east-asian:normal;fill:#e23d80;fill-opacity:1"
           id="path865"
           inkscape:path-effect="#path-effect940"
           inkscape:original-d="m -161.17778,-25.073288 h 1.524 l -0.13758,0.656164 q 0.35983,-0.317498 0.64558,-0.486831 0.29633,-0.169333 0.63499,-0.169333 0.33867,0 0.52917,0.232833 0.20108,0.232832 0.20108,0.560914 0,0.306916 -0.20108,0.539749 -0.20108,0.232832 -0.56092,0.232832 -0.23283,0 -0.31749,-0.105833 -0.0741,-0.116416 -0.11642,-0.328082 -0.0318,-0.137583 -0.0635,-0.201083 -0.0318,-0.0635 -0.11642,-0.0635 -0.22225,0 -0.381,0.09525 -0.14816,0.08467 -0.39158,0.306916 l -0.84666,4.021654 h -1.524 z" />
        <path
           d="m -157.06673,-19.718138 c -0.40217,0 -0.7373,-0.137583 -1.00541,-0.412749 -0.26811,-0.275166 -0.40217,-0.705554 -0.40217,-1.291163 0,-0.522109 0.10231,-1.068913 0.30692,-1.640411 0.21166,-0.578554 0.5221,-1.065386 0.93133,-1.460495 0.41627,-0.402165 0.91016,-0.603248 1.48166,-0.603248 0.28927,0 0.50447,0.04939 0.64558,0.148166 0.14111,0.09878 0.21167,0.229305 0.21167,0.391582 v 0.07408 l 0.0313,-0.150953 a 0.51451428,0.51451428 140.86225 0 1 0.50378,-0.409962 l 1.1053,0 -0.762,3.598322 c -0.0282,0.105833 -0.0423,0.218721 -0.0423,0.338665 0,0.303388 0.14464,0.455082 0.43391,0.455082 0.19755,0 0.36689,-0.09172 0.508,-0.275166 0.14817,-0.183443 0.26458,-0.423331 0.34925,-0.719664 h 0.4445 c -0.26105,0.761997 -0.58561,1.280579 -0.97367,1.555745 -0.38099,0.26811 -0.76552,0.402165 -1.15358,0.402165 -0.29633,0 -0.53621,-0.08114 -0.71966,-0.243415 -0.17639,-0.169333 -0.28222,-0.412749 -0.3175,-0.730248 -0.20461,0.289277 -0.43391,0.525637 -0.68791,0.709081 -0.24695,0.176388 -0.54328,0.264582 -0.889,0.264582 z m 0.68791,-1.02658 c 0.17639,0 0.34926,-0.08114 0.51859,-0.243416 0.17639,-0.169333 0.29633,-0.398638 0.35983,-0.687915 l 0.508,-2.391826 c 0,-0.09172 -0.0353,-0.179916 -0.10584,-0.264582 -0.0705,-0.09172 -0.17991,-0.137583 -0.32808,-0.137583 -0.28222,0 -0.53622,0.165805 -0.762,0.497415 -0.22577,0.324555 -0.40216,0.719665 -0.52916,1.18533 -0.127,0.458609 -0.1905,0.864302 -0.1905,1.217079 0,0.352777 0.0494,0.578554 0.14816,0.677331 0.10583,0.09878 0.23283,0.148167 0.381,0.148167 z"
           style="font-style:normal;font-variant:normal;font-weight:normal;font-stretch:normal;font-size:10.5833px;font-family:Lobster;-inkscape-font-specification:'Lobster, Normal';font-variant-ligatures:normal;font-variant-caps:normal;font-variant-numeric:normal;font-variant-east-asian:normal;fill:#e23d80;fill-opacity:1"
           id="path867"
           inkscape:path-effect="#path-effect938"
           inkscape:original-d="m -157.06673,-19.718138 q -0.60325,0 -1.00541,-0.412749 -0.40217,-0.412749 -0.40217,-1.291163 0,-0.783164 0.30692,-1.640411 0.31749,-0.867831 0.93133,-1.460495 0.62441,-0.603248 1.48166,-0.603248 0.43391,0 0.64558,0.148166 0.21167,0.148166 0.21167,0.391582 v 0.07408 l 0.11641,-0.560915 h 1.524 l -0.762,3.598322 q -0.0423,0.158749 -0.0423,0.338665 0,0.455082 0.43391,0.455082 0.29633,0 0.508,-0.275166 0.22225,-0.275165 0.34925,-0.719664 h 0.4445 q -0.39158,1.142996 -0.97367,1.555745 -0.57149,0.402165 -1.15358,0.402165 -0.44449,0 -0.71966,-0.243415 -0.26458,-0.254 -0.3175,-0.730248 -0.30691,0.433915 -0.68791,0.709081 -0.37042,0.264582 -0.889,0.264582 z m 0.68791,-1.02658 q 0.26459,0 0.51859,-0.243416 0.26458,-0.254 0.35983,-0.687915 l 0.508,-2.391826 q 0,-0.137583 -0.10584,-0.264582 -0.10583,-0.137583 -0.32808,-0.137583 -0.42333,0 -0.762,0.497415 -0.33866,0.486832 -0.52916,1.18533 -0.1905,0.687914 -0.1905,1.217079 0,0.529165 0.14816,0.677331 0.15875,0.148167 0.381,0.148167 z" />
        <path
           d="m -151.56342,-19.718138 c -0.40923,0 -0.73026,-0.102305 -0.96309,-0.306916 -0.22577,-0.211666 -0.33866,-0.525637 -0.33866,-0.941914 0,-0.169333 0.0176,-0.338665 0.0529,-0.507998 l 0.65908,-3.112339 a 0.61297158,0.61297158 140.97823 0 1 0.59967,-0.485983 l 1.02724,0 -0.762,3.598322 c -0.0353,0.176388 -0.0529,0.303388 -0.0529,0.380999 0,0.232833 0.11995,0.349249 0.35984,0.349249 0.32455,0 0.62441,-0.204611 0.89958,-0.613832 0.28222,-0.409221 0.508,-0.896052 0.67733,-1.460495 0.16933,-0.564443 0.254,-1.051275 0.254,-1.460496 -0.0141,0.03528 -0.06,0.0635 -0.13759,0.08467 -0.0776,0.01411 -0.14463,0.02117 -0.20108,0.02117 -0.11994,0 -0.21519,-0.05644 -0.28575,-0.169332 -0.0635,-0.112889 -0.0952,-0.236361 -0.0952,-0.370416 0,-0.169333 0.0529,-0.306915 0.15875,-0.412748 0.11289,-0.105833 0.2787,-0.15875 0.49742,-0.15875 0.23283,0 0.40217,0.08819 0.508,0.264583 0.10583,0.169333 0.15875,0.388054 0.15875,0.656164 0,0.634998 -0.10936,1.315857 -0.32809,2.042577 -0.21872,0.719664 -0.55386,1.333495 -1.00541,1.841494 -0.45155,0.507999 -1.01247,0.761998 -1.68274,0.761998 z"
           style="font-style:normal;font-variant:normal;font-weight:normal;font-stretch:normal;font-size:10.5833px;font-family:Lobster;-inkscape-font-specification:'Lobster, Normal';font-variant-ligatures:normal;font-variant-caps:normal;font-variant-numeric:normal;font-variant-east-asian:normal;fill:#e23d80;fill-opacity:1"
           id="path869"
           inkscape:path-effect="#path-effect936"
           inkscape:original-d="m -151.56342,-19.718138 q -0.61384,0 -0.96309,-0.306916 -0.33866,-0.317499 -0.33866,-0.941914 0,-0.253999 0.0529,-0.507998 l 0.76199,-3.598322 h 1.524 l -0.762,3.598322 q -0.0529,0.264582 -0.0529,0.380999 0,0.349249 0.35984,0.349249 0.48683,0 0.89958,-0.613832 0.42333,-0.613831 0.67733,-1.460495 0.254,-0.846664 0.254,-1.460496 -0.0212,0.05292 -0.13759,0.08467 -0.11641,0.02117 -0.20108,0.02117 -0.17991,0 -0.28575,-0.169332 -0.0952,-0.169333 -0.0952,-0.370416 0,-0.253999 0.15875,-0.412748 0.16934,-0.15875 0.49742,-0.15875 0.34925,0 0.508,0.264583 0.15875,0.253999 0.15875,0.656164 0,0.952497 -0.32809,2.042577 -0.32808,1.079496 -1.00541,1.841494 -0.67733,0.761998 -1.68274,0.761998 z" />
        <path
           d="m -147.08518,-19.718138 q -0.78316,0 -1.21708,-0.402166 -0.43391,-0.412748 -0.43391,-1.280579 0,-0.730248 0.28575,-1.608662 0.28575,-0.878413 0.93133,-1.513411 0.64558,-0.645582 1.64041,-0.645582 1.16416,0 1.16416,1.015997 0,0.592665 -0.33866,1.09008 -0.33867,0.497415 -0.89958,0.804331 -0.56092,0.296332 -1.19592,0.338665 -0.0212,0.317499 -0.0212,0.423332 0,0.518582 0.17991,0.709081 0.17992,0.179916 0.58208,0.179916 0.5715,0 0.97367,-0.264582 0.41275,-0.264583 0.89958,-0.804331 h 0.35983 q -1.17475,1.957911 -2.91041,1.957911 z m 0.0212,-2.709325 q 0.39158,-0.02117 0.74083,-0.275166 0.35983,-0.253999 0.5715,-0.645581 0.22225,-0.391582 0.22225,-0.825498 0,-0.433915 -0.26459,-0.433915 -0.38099,0 -0.75141,0.666748 -0.35983,0.666748 -0.51858,1.513412 z"
           style="font-style:normal;font-variant:normal;font-weight:normal;font-stretch:normal;font-size:10.5833px;font-family:Lobster;-inkscape-font-specification:'Lobster, Normal';font-variant-ligatures:normal;font-variant-caps:normal;font-variant-numeric:normal;font-variant-east-asian:normal;fill:#e23d80;fill-opacity:1"
           id="path871" />
        <path
           d="m -143.48687,-19.718138 c -0.33867,0 -0.61383,-0.105833 -0.82549,-0.317499 -0.20461,-0.211666 -0.30692,-0.529165 -0.30692,-0.952497 0,-0.176389 0.0282,-0.405693 0.0847,-0.687915 l 1.08968,-5.102151 a 0.29084712,0.29084712 137.17981 0 1 0.24548,-0.227481 l 1.36358,-0.184267 -1.21708,5.714982 c -0.0282,0.105833 -0.0423,0.218721 -0.0423,0.338665 0,0.141111 0.0317,0.243416 0.0952,0.306916 0.0706,0.05644 0.18345,0.08467 0.33867,0.08467 0.20461,0 0.39511,-0.08467 0.5715,-0.253999 0.17639,-0.176388 0.30339,-0.402165 0.381,-0.677331 h 0.4445 c -0.26106,0.761997 -0.5962,1.280579 -1.00542,1.555745 -0.40922,0.26811 -0.81491,0.402165 -1.21708,0.402165 z"
           style="font-style:normal;font-variant:normal;font-weight:normal;font-stretch:normal;font-size:10.5833px;font-family:Lobster;-inkscape-font-specification:'Lobster, Normal';font-variant-ligatures:normal;font-variant-caps:normal;font-variant-numeric:normal;font-variant-east-asian:normal;fill:#e23d80;fill-opacity:1"
           id="path873"
           sodipodi:nodetypes="scsccccscsccccss"
           inkscape:path-effect="#path-effect932"
           inkscape:original-d="m -143.48687,-19.718138 c -0.33867,0 -0.61383,-0.105833 -0.82549,-0.317499 -0.20461,-0.211666 -0.30692,-0.529165 -0.30692,-0.952497 0,-0.176389 0.0282,-0.405693 0.0847,-0.687915 l 1.13241,-5.302233 1.56633,-0.211666 -1.21708,5.714982 c -0.0282,0.105833 -0.0423,0.218721 -0.0423,0.338665 0,0.141111 0.0317,0.243416 0.0952,0.306916 0.0706,0.05644 0.18345,0.08467 0.33867,0.08467 0.20461,0 0.39511,-0.08467 0.5715,-0.253999 0.17639,-0.176388 0.30339,-0.402165 0.381,-0.677331 h 0.4445 c -0.26106,0.761997 -0.5962,1.280579 -1.00542,1.555745 -0.40922,0.26811 -0.81491,0.402165 -1.21708,0.402165 z" />
        <path
           d="m -140.67001,-25.073288 1.20478,0 -0.13759,0.656164 c 0.23989,-0.211665 0.45509,-0.373942 0.64559,-0.486831 0.19755,-0.112889 0.40922,-0.169333 0.63499,-0.169333 0.22578,0 0.40217,0.07761 0.52917,0.232833 0.13405,0.155221 0.20108,0.342193 0.20108,0.560914 0,0.204611 -0.067,0.384527 -0.20108,0.539749 -0.13405,0.155221 -0.32103,0.232832 -0.56092,0.232832 -0.15522,0 -0.26105,-0.03528 -0.31749,-0.105833 -0.0494,-0.07761 -0.0882,-0.186971 -0.11642,-0.328082 -0.0211,-0.09172 -0.0423,-0.15875 -0.0635,-0.201083 -0.0211,-0.04233 -0.0599,-0.0635 -0.11642,-0.0635 -0.14817,0 -0.27517,0.03175 -0.381,0.09525 -0.0988,0.05645 -0.2293,0.158752 -0.39158,0.306916 l -0.84666,4.021654 h -1.524 l 1.05563,-4.979366 a 0.39399505,0.39399505 140.98474 0 1 0.38542,-0.312284 z"
           style="font-style:normal;font-variant:normal;font-weight:normal;font-stretch:normal;font-size:10.5833px;font-family:Lobster;-inkscape-font-specification:'Lobster, Normal';font-variant-ligatures:normal;font-variant-caps:normal;font-variant-numeric:normal;font-variant-east-asian:normal;fill:#e23d80;fill-opacity:1"
           id="path875"
           inkscape:path-effect="#path-effect934"
           inkscape:original-d="m -140.98923,-25.073288 h 1.524 l -0.13759,0.656164 q 0.35984,-0.317498 0.64559,-0.486831 0.29633,-0.169333 0.63499,-0.169333 0.33867,0 0.52917,0.232833 0.20108,0.232832 0.20108,0.560914 0,0.306916 -0.20108,0.539749 -0.20108,0.232832 -0.56092,0.232832 -0.23283,0 -0.31749,-0.105833 -0.0741,-0.116416 -0.11642,-0.328082 -0.0317,-0.137583 -0.0635,-0.201083 -0.0317,-0.0635 -0.11642,-0.0635 -0.22225,0 -0.381,0.09525 -0.14816,0.08467 -0.39158,0.306916 l -0.84666,4.021654 h -1.524 z" />
        <path
           d="m -138.84447,-19.739305 q -0.34925,0 -0.59267,-0.243416 -0.24341,-0.243416 -0.24341,-0.592665 0,-0.349249 0.24341,-0.592664 0.24342,-0.254 0.59267,-0.254 0.34924,0 0.59266,0.254 0.254,0.243415 0.254,0.592664 0,0.349249 -0.254,0.592665 -0.24342,0.243416 -0.59266,0.243416 z"
           style="font-style:normal;font-variant:normal;font-weight:normal;font-stretch:normal;font-size:10.5833px;font-family:Lobster;-inkscape-font-specification:'Lobster, Normal';font-variant-ligatures:normal;font-variant-caps:normal;font-variant-numeric:normal;font-variant-east-asian:normal;fill:#e23d80;fill-opacity:1"
           id="path877" />
      </g>
    </g>
  </g>
</svg>
